<svg xmlns="http://www.w3.org/2000/svg" xmlns:xlink="http://www.w3.org/1999/xlink" width="500" zoomAndPan="magnify" viewBox="0 0 375 374.999991" height="500" preserveAspectRatio="xMidYMid meet" version="1.0"><defs><clipPath id="16c6f59a71"><path d="M 18 74.941406 L 353.125 74.941406 L 353.125 301 L 18 301 Z M 18 74.941406 " clip-rule="nonzero"/></clipPath><clipPath id="2e16c2f97b"><path d="M 130 77 L 351 77 L 351 298 L 130 298 Z M 130 77 " clip-rule="nonzero"/></clipPath><clipPath id="29a2608f21"><path d="M 122.523438 187.671875 L 240.9375 69.261719 L 358.886719 187.210938 L 240.476562 305.625 Z M 122.523438 187.671875 " clip-rule="nonzero"/></clipPath><clipPath id="98beff72d1"><path d="M 136.84375 173.355469 L 226.519531 83.675781 C 230.316406 79.878906 235.46875 77.746094 240.839844 77.746094 C 246.210938 77.746094 251.359375 79.878906 255.15625 83.675781 L 344.472656 172.992188 C 348.269531 176.789062 350.402344 181.9375 350.402344 187.308594 C 350.402344 192.679688 348.269531 197.832031 344.472656 201.628906 L 254.792969 291.304688 C 250.996094 295.101562 245.847656 297.238281 240.476562 297.238281 C 235.105469 297.238281 229.953125 295.101562 226.15625 291.304688 L 136.84375 201.992188 C 133.046875 198.195312 130.910156 193.042969 130.910156 187.671875 C 130.910156 182.300781 133.046875 177.152344 136.84375 173.355469 Z M 136.84375 173.355469 " clip-rule="nonzero"/></clipPath></defs><g clip-path="url(#16c6f59a71)"><path fill="#22e47a" d="M 346.65625 170.175781 L 258.597656 82.117188 C 253.972656 77.492188 247.824219 74.945312 241.285156 74.945312 C 234.746094 74.945312 228.597656 77.492188 223.972656 82.117188 L 186.230469 119.855469 L 148.492188 82.117188 C 143.871094 77.492188 137.722656 74.941406 131.179688 74.941406 C 124.640625 74.941406 118.492188 77.492188 113.871094 82.117188 L 25.808594 170.175781 C 16.265625 179.722656 16.265625 195.253906 25.808594 204.800781 L 113.867188 292.859375 C 118.492188 297.484375 124.640625 300.03125 131.179688 300.03125 C 137.722656 300.03125 143.867188 297.484375 148.492188 292.859375 L 186.230469 255.121094 L 223.972656 292.859375 C 228.59375 297.484375 234.746094 300.03125 241.285156 300.03125 C 247.824219 300.03125 253.972656 297.484375 258.597656 292.859375 L 346.65625 204.800781 C 351.28125 200.175781 353.828125 194.027344 353.828125 187.488281 C 353.828125 180.949219 351.28125 174.800781 346.65625 170.175781 Z M 145.042969 289.410156 C 141.339844 293.113281 136.417969 295.152344 131.179688 295.152344 C 125.945312 295.152344 121.019531 293.113281 117.320312 289.410156 L 29.257812 201.351562 C 21.617188 193.707031 21.617188 181.269531 29.257812 173.625 L 117.320312 85.566406 C 121.019531 81.863281 125.945312 79.824219 131.179688 79.824219 C 136.417969 79.824219 141.339844 81.863281 145.042969 85.566406 L 182.78125 123.304688 L 135.914062 170.175781 C 131.289062 174.800781 128.742188 180.949219 128.742188 187.488281 C 128.742188 194.027344 131.289062 200.175781 135.914062 204.800781 L 182.78125 251.671875 Z M 343.207031 201.351562 L 255.148438 289.410156 C 247.503906 297.054688 235.066406 297.054688 227.421875 289.410156 L 139.363281 201.351562 C 131.71875 193.707031 131.71875 181.269531 139.363281 173.625 L 227.421875 85.566406 C 231.242188 81.742188 236.265625 79.832031 241.285156 79.832031 C 246.304688 79.832031 251.324219 81.742188 255.148438 85.566406 L 343.207031 173.625 C 350.851562 181.269531 350.851562 193.707031 343.207031 201.351562 Z M 343.207031 201.351562 " fill-opacity="1" fill-rule="nonzero"/></g><g clip-path="url(#2e16c2f97b)"><g clip-path="url(#29a2608f21)"><g clip-path="url(#98beff72d1)"><path fill="#22e47a" d="M 122.523438 187.671875 L 240.9375 69.261719 L 358.886719 187.210938 L 240.476562 305.625 Z M 122.523438 187.671875 " fill-opacity="1" fill-rule="nonzero"/></g></g></g></svg>